<svg width="21" height="24" viewBox="0 0 21 24" fill="none" xmlns="http://www.w3.org/2000/svg">
<path d="M21 15.75C21 16.4531 20.6719 17.0156 20.25 17.4844V21.2812C20.6719 21.5625 21 22.0312 21 22.5469C21 23.3438 20.2969 24 19.5 24H4.5C1.96875 24 0 22.0312 0 19.5V4.5C0 2.01562 1.96875 0 4.5 0H18.75C19.9688 0 21 1.03125 21 2.25V15.75ZM6.70312 6C6.32812 6 6 6.375 6 6.75C6 7.17188 6.32812 7.5 6.70312 7.5H15.75C16.125 7.5 16.5 7.17188 16.5 6.75C16.5 6.375 16.125 6 15.7031 6H6.70312ZM6.70312 9C6.32812 9 6 9.375 6 9.75C6 10.1719 6.32812 10.5 6.70312 10.5H15.75C16.125 10.5 16.5 10.1719 16.5 9.75C16.5 9.375 16.125 9 15.7031 9H6.70312ZM18 21V18H4.5C3.65625 18 3 18.7031 3 19.5C3 20.3438 3.65625 21 4.5 21H18Z" fill="#FFB200"/>
</svg>
