<svg width="31" height="22" viewBox="0 0 31 22" fill="none" xmlns="http://www.w3.org/2000/svg">
<path d="M29.7031 5.42188C30.1719 5.60938 30.5 6.03125 30.5 6.5C30.5 7.01562 30.1719 7.4375 29.7031 7.625L16.4844 12.3594C15.8281 12.5938 15.125 12.5938 14.4688 12.3594L5.5625 9.17188C5 9.78125 4.57812 10.5312 4.39062 11.375C4.71875 11.6094 5 12.0312 5 12.5C5 12.9688 4.76562 13.3906 4.4375 13.6719L5.5625 20.6562C5.65625 21.125 5.28125 21.5 4.85938 21.5H2.09375C1.67188 21.5 1.29688 21.125 1.39062 20.6562L2.51562 13.6719C2.1875 13.3906 2 12.9688 2 12.5C2 11.8906 2.375 11.375 2.89062 11.1406C3.07812 10.2031 3.5 9.35938 4.0625 8.60938L1.25 7.625C0.78125 7.4375 0.5 7.01562 0.5 6.5C0.5 6.03125 0.78125 5.60938 1.25 5.42188L14.4219 0.6875C15.0781 0.453125 15.7812 0.453125 16.4375 0.6875L29.7031 5.42188ZM16.9531 13.7656L23.7969 11.3281L24.5 18.0312C24.5 19.9531 20.4219 21.5 15.5 21.5C10.4844 21.5 6.5 19.9531 6.5 18.0312L7.15625 11.3281L14 13.7656C14.4688 13.9531 14.9844 14 15.5 14C15.9688 14 16.4844 13.9531 16.9531 13.7656Z" fill="#0081C9"/>
</svg>
