<svg width="19" height="17" viewBox="0 0 19 17" fill="none" xmlns="http://www.w3.org/2000/svg">
<path d="M12.5704 12.2837C11.1057 13.2895 9.26252 13.7639 7.41602 13.6105C5.56953 13.4571 3.85861 12.6873 2.63163 11.4579C1.40465 10.2285 0.753862 8.63184 0.811788 6.99313C0.869713 5.35442 1.63199 3.79683 2.94341 2.63752C4.25483 1.47822 6.01679 0.804354 7.87051 0.753147C9.72424 0.70194 11.5303 1.27724 12.9211 2.3619C14.3118 3.44657 15.1826 4.95904 15.3562 6.59135C15.5297 8.22367 14.993 9.85309 13.8552 11.1478L18.0822 14.8706C18.4401 15.1857 18.4406 15.6976 18.0834 16.0133C17.7263 16.3291 17.1469 16.3289 16.79 16.0128L12.5795 12.2837H12.5704ZM8.10526 12.0259C8.82326 12.0259 9.53423 11.9009 10.1976 11.658C10.8609 11.4151 11.4637 11.0591 11.9714 10.6103C12.4791 10.1614 12.8818 9.62862 13.1566 9.04222C13.4313 8.45581 13.5727 7.82731 13.5727 7.19259C13.5727 6.55787 13.4313 5.92937 13.1566 5.34297C12.8818 4.75657 12.4791 4.22375 11.9714 3.77493C11.4637 3.32612 10.8609 2.9701 10.1976 2.7272C9.53423 2.48431 8.82326 2.35929 8.10526 2.35929C6.6552 2.35929 5.26452 2.86851 4.23917 3.77493C3.21382 4.68135 2.63779 5.91072 2.63779 7.19259C2.63779 8.47446 3.21382 9.70383 4.23917 10.6103C5.26452 11.5167 6.6552 12.0259 8.10526 12.0259Z" fill="#0081C9"/>
</svg>
